<?xml version="1.0" encoding="UTF-8"?><svg version="1.1" viewBox="0 0 647.27 76.132" xmlns="http://www.w3.org/2000/svg"><defs><clipPath id="a"><path d="M 0,101.347 H 535.686 V 0 H 0 Z"/></clipPath></defs><g transform="matrix(1.3333 0 0 -1.3333 -35.429 97.489)"><g transform="translate(83.485 64.11)"><path d="m0 0h-19.266v-18.661l16.282-16.529h37.647z" fill="#007978"/></g><g transform="translate(45.838 64.11)"><path d="m0 0h-19.266v-35.19h37.647v16.529z" fill="#11b9a3"/></g><g transform="translate(64.219 28.92)"><path d="m0 0h16.282l-16.282 16.529z" fill="#004263"/></g><g clip-path="url(#a)"><g transform="translate(139.24 30.644)"><path d="m0 0v3.92l0.292 0.117c2.34-0.702 5.792-1.112 8.951-1.112 4.212 0 6.436 1.404 6.436 3.92 0 2.398-0.937 3.218-7.372 6.084-6.552 2.925-8.132 5.148-8.132 8.483 0 4.973 3.744 7.956 10.004 7.956 2.515 0 5.967-0.526 8.249-1.228v-3.978l-0.292-0.118c-2.341 0.703-6.144 1.229-8.425 1.229-3.568 0-5.323-1.404-5.323-3.744 0-1.814 0.935-3.042 6.903-5.675 6.903-2.983 8.6-5.089 8.6-8.775 0-5.324-3.862-8.249-10.765-8.249-2.925 0-6.903 0.526-9.126 1.17" fill="#007978"/></g><g transform="translate(180.37 33.744)"><path d="m0 0v-3.92c-0.937-0.175-2.165-0.351-4.388-0.351-6.435 0-10.471 3.16-10.471 10.296v25.976h4.094v-6.845c1.287 0.234 3.453 0.527 5.734 0.527h4.329v-4.096h-10.063v-15.151c0-4.564 2.399-6.612 6.611-6.612 1.697 0 2.808 0.117 3.861 0.293z" fill="#007978"/></g><g transform="translate(205.06 41.642)"><path d="m0 0v2.106h-9.419c-4.622 0-7.079-1.813-7.079-5.148 0-3.334 2.808-5.206 6.962-5.206 6.434 0 9.536 3.686 9.536 8.248m4.036 7.372v-18.955h-2.165l-1.286 4.622c-1.112-2.75-4.213-5.207-10.414-5.207-6.143 0-10.881 2.925-10.881 9.126 0 5.792 4.153 9.068 11.466 9.068h9.244v0.819c0 4.68-2.75 7.43-8.308 7.43-3.744 0-8.131-0.819-9.712-1.287l-0.292 0.117v3.919c1.521 0.469 6.143 1.346 10.414 1.346 7.546 0 11.934-4.037 11.934-10.998" fill="#007978"/></g><g transform="translate(233.55 59.661)"><path d="m0 0v-3.861l-0.175-0.117c-0.761 0.117-1.638 0.234-3.159 0.234-4.446 0-8.073-2.808-8.073-8.542v-17.316h-4.155v29.368h1.756l1.638-4.563c1.111 2.808 4.68 5.148 9.067 5.148 1.346 0 2.516-0.175 3.101-0.351" fill="#007978"/></g><g transform="translate(253.85 33.744)"><path d="m0 0v-3.92c-0.937-0.175-2.165-0.351-4.388-0.351-6.435 0-10.471 3.16-10.471 10.296v25.976h4.094v-6.845c1.287 0.234 3.452 0.527 5.734 0.527h4.329v-4.096h-10.063v-15.151c0-4.564 2.399-6.612 6.611-6.612 1.697 0 2.808 0.117 3.861 0.293z" fill="#007978"/></g><path d="m260.4 59.427h4.153v-29.368h-4.153zm-0.82 8.541c0 1.638 1.229 2.809 2.866 2.809 1.639 0 2.809-1.171 2.809-2.809 0-1.579-1.111-2.749-2.809-2.749-1.813 0-2.866 1.228-2.866 2.749" fill="#007978"/><g transform="translate(298.37 49.013)"><path d="m0 0v-18.955h-4.095v17.434c0 5.792-2.808 8.424-7.547 8.424-5.382 0-8.658-3.276-8.658-8.424v-17.434h-4.154v29.369h2.165l1.287-4.564c1.053 2.399 3.861 5.149 9.828 5.149 6.845 0 11.174-4.037 11.174-10.999" fill="#007978"/></g><g transform="translate(328.43 41.818)"><path d="m0 0v12.52c-2.165 0.994-5.207 1.579-7.723 1.579-6.551 0-11.407-4.27-11.407-11.525 0-6.025 3.393-10.823 9.711-10.823 5.675 0 9.419 3.394 9.419 8.249m4.095 15.445v-27.321c0-9.77-5.733-13.924-14.86-13.924-3.1 0-5.733 0.469-7.136 0.82v3.919l0.292 0.118c1.287-0.352 3.92-0.761 6.962-0.761 6.259 0 10.647 2.808 10.647 9.828v4.096c-1.346-2.633-5.323-4.564-9.945-4.564-8.659 0-13.398 6.904-13.398 14.743 0 10.296 6.67 15.795 15.446 15.795 5.849 0 10.471-1.813 11.992-2.749" fill="#007978"/></g><g transform="translate(370.57 45.153)"><path d="m0 0c0 4.563-2.633 8.424-7.547 8.424-4.563 0-7.488-2.691-7.488-6.669v-10.063c1.755-0.585 3.861-0.877 5.616-0.877 5.148 0 9.419 3.159 9.419 9.185m7.371 0.351c0-10.472-7.02-16.03-16.557-16.03-6.259 0-11.348 1.872-13.045 2.75v40.893h7.196v-16.79c1.404 2.34 4.972 3.919 9.302 3.919 8.307 0 13.104-6.844 13.104-14.742" fill="#007978"/></g><path d="m383.67 73.116h7.196v-43.058h-7.196z" fill="#007978"/><g transform="translate(420.76 44.802)"><path d="m0 0c0 5.324-3.394 8.833-8.366 8.833-5.031 0-8.483-3.685-8.483-8.774 0-5.266 3.393-8.776 8.424-8.776 5.149 0 8.425 3.685 8.425 8.717m-24.161 0.059c0 9.009 6.493 15.385 15.795 15.385 9.712 0 15.678-6.786 15.678-15.269 0-8.834-6.083-15.503-15.737-15.503-9.476 0-15.736 6.611-15.736 15.387" fill="#007978"/></g><g transform="translate(431.82 44.802)"><path d="m0 0c0 9.126 6.376 15.444 15.795 15.444 2.809 0 5.383-0.409 7.021-0.994v-6.611l-0.293-0.117c-1.287 0.527-3.217 0.819-5.791 0.819-5.616 0-9.361-3.101-9.361-8.366 0-5.382 3.92-8.658 9.536-8.658 2.515 0 4.622 0.409 6.435 0.936l0.293-0.117v-6.669c-2.048-0.644-4.68-0.995-7.429-0.995-9.83 0-16.206 6.202-16.206 15.328" fill="#007978"/></g><g transform="translate(460.89 73.116)"><path d="m0 0h7.196v-24.629h4.621l7.431 11.173h8.482l-10.121-14.333 10.765-15.269h-8.541l-8.016 12.052h-4.621v-12.052h-7.196z" fill="#007978"/></g><g transform="translate(491.02 30.468)"><path d="m0 0v6.26l0.293 0.117c2.34-0.585 6.376-0.994 9.36-0.994 2.808 0 4.329 0.877 4.329 2.398s-0.41 1.99-6.494 4.68c-6.142 2.75-7.722 5.09-7.722 8.6 0 5.5 4.037 8.717 10.999 8.717 2.574 0 6.259-0.468 8.716-1.17v-6.201l-0.293-0.117c-2.515 0.585-6.668 1.111-8.833 1.111-2.399 0-3.452-0.878-3.452-2.164 0-1.171 0.585-1.989 6.143-4.446 6.435-2.867 7.956-5.324 7.956-9.068 0-5.617-3.978-8.717-11.29-8.717-3.043 0-7.547 0.468-9.712 0.994" fill="#007978"/></g></g></g></svg>