<svg xmlns="http://www.w3.org/2000/svg" xml:space="preserve" viewBox="0 0 239.03488 22.641491"><defs><clipPath id="a" clipPathUnits="userSpaceOnUse"><path d="M0 101.347h535.686V0H0Z"/></clipPath></defs><path fill="#007978" d="M20.077641 5.675708h-6.796616v6.583186l5.743927 5.831064h13.281025z"/><path fill="#11b9a3" d="M6.796617 5.675708H0v12.41425h13.281025v-5.831064z"/><path fill="#004263" d="M13.281095 18.089958h5.743928l-5.743928-5.831064Z"/><g clip-path="url(#a)" transform="matrix(.35278 0 0 -.35278 -9.37401 28.29215)"><path fill="#007978" d="M139.2443 30.6438v3.92l.292.117c2.34-.702 5.792-1.112 8.951-1.112 4.212 0 6.436 1.404 6.436 3.92 0 2.398-.937 3.218-7.372 6.084-6.552 2.925-8.132 5.148-8.132 8.483 0 4.973 3.744 7.956 10.004 7.956 2.515 0 5.967-.526 8.249-1.228v-3.978l-.292-.118c-2.341.703-6.144 1.229-8.425 1.229-3.568 0-5.323-1.404-5.323-3.744 0-1.814.935-3.042 6.903-5.675 6.903-2.983 8.6-5.089 8.6-8.775 0-5.324-3.862-8.249-10.765-8.249-2.925 0-6.903.526-9.126 1.17M180.3703 33.7444v-3.92c-.937-.175-2.165-.351-4.388-.351-6.435 0-10.471 3.16-10.471 10.296v25.976h4.094v-6.845c1.287.234 3.453.527 5.734.527h4.329v-4.096h-10.063v-15.151c0-4.564 2.399-6.612 6.611-6.612 1.697 0 2.808.117 3.861.293zM205.0578 41.6418v2.106h-9.419c-4.622 0-7.079-1.813-7.079-5.148 0-3.334 2.808-5.206 6.962-5.206 6.434 0 9.536 3.686 9.536 8.248m4.036 7.372v-18.955h-2.165l-1.286 4.622c-1.112-2.75-4.213-5.207-10.414-5.207-6.143 0-10.881 2.925-10.881 9.126 0 5.792 4.153 9.068 11.466 9.068h9.244v.819c0 4.68-2.75 7.43-8.308 7.43-3.744 0-8.131-.819-9.712-1.287l-.292.117v3.919c1.521.469 6.143 1.346 10.414 1.346 7.546 0 11.934-4.037 11.934-10.998M233.5471 59.6609v-3.861l-.175-.117c-.761.117-1.638.234-3.159.234-4.446 0-8.073-2.808-8.073-8.542v-17.316h-4.155v29.368h1.756l1.638-4.563c1.111 2.808 4.68 5.148 9.067 5.148 1.346 0 2.516-.175 3.101-.351M253.8478 33.7444v-3.92c-.937-.175-2.165-.351-4.388-.351-6.435 0-10.471 3.16-10.471 10.296v25.976h4.094v-6.845c1.287.234 3.452.527 5.734.527h4.329v-4.096h-10.063v-15.151c0-4.564 2.399-6.612 6.611-6.612 1.697 0 2.808.117 3.861.293zM260.399 59.427h4.153V30.059h-4.153zm-.82 8.541c0 1.638 1.229 2.809 2.866 2.809 1.639 0 2.809-1.171 2.809-2.809 0-1.579-1.111-2.749-2.809-2.749-1.813 0-2.866 1.228-2.866 2.749M298.3654 49.0134v-18.955h-4.095v17.434c0 5.792-2.808 8.424-7.547 8.424-5.382 0-8.658-3.276-8.658-8.424v-17.434h-4.154v29.369h2.165l1.287-4.564c1.053 2.399 3.861 5.149 9.828 5.149 6.845 0 11.174-4.037 11.174-10.999M328.4348 41.8176v12.52c-2.165.994-5.207 1.579-7.723 1.579-6.551 0-11.407-4.27-11.407-11.525 0-6.025 3.393-10.823 9.711-10.823 5.675 0 9.419 3.394 9.419 8.249m4.095 15.445v-27.321c0-9.77-5.733-13.924-14.86-13.924-3.1 0-5.733.469-7.136.82v3.919l.292.118c1.287-.352 3.92-.761 6.962-.761 6.259 0 10.647 2.808 10.647 9.828v4.096c-1.346-2.633-5.323-4.564-9.945-4.564-8.659 0-13.398 6.904-13.398 14.743 0 10.296 6.67 15.795 15.446 15.795 5.849 0 10.471-1.813 11.992-2.749M370.5656 45.1526c0 4.563-2.633 8.424-7.547 8.424-4.563 0-7.488-2.691-7.488-6.669v-10.063c1.755-.585 3.861-.877 5.616-.877 5.148 0 9.419 3.159 9.419 9.185m7.371.351c0-10.472-7.02-16.03-16.557-16.03-6.259 0-11.348 1.872-13.045 2.75v40.893h7.196v-16.79c1.404 2.34 4.972 3.919 9.302 3.919 8.307 0 13.104-6.844 13.104-14.742M383.669 73.116h7.196V30.058h-7.196zM420.7599 44.8015c0 5.324-3.394 8.833-8.366 8.833-5.031 0-8.483-3.685-8.483-8.774 0-5.266 3.393-8.776 8.424-8.776 5.149 0 8.425 3.685 8.425 8.717m-24.161.059c0 9.009 6.493 15.385 15.795 15.385 9.712 0 15.678-6.786 15.678-15.269 0-8.834-6.083-15.503-15.737-15.503-9.476 0-15.736 6.611-15.736 15.387M431.8166 44.8015c0 9.126 6.376 15.444 15.795 15.444 2.809 0 5.383-.409 7.021-.994v-6.611l-.293-.117c-1.287.527-3.217.819-5.791.819-5.616 0-9.361-3.101-9.361-8.366 0-5.382 3.92-8.658 9.536-8.658 2.515 0 4.622.409 6.435.936l.293-.117v-6.669c-2.048-.644-4.68-.995-7.429-.995-9.83 0-16.206 6.202-16.206 15.328M460.8903 73.1165h7.196v-24.629h4.621l7.431 11.173h8.482l-10.121-14.333 10.765-15.269h-8.541l-8.016 12.052h-4.621v-12.052h-7.196ZM491.0192 30.468v6.26l.293.117c2.34-.585 6.376-.994 9.36-.994 2.808 0 4.329.877 4.329 2.398 0 1.521-.41 1.99-6.494 4.68-6.142 2.75-7.722 5.09-7.722 8.6 0 5.5 4.037 8.717 10.999 8.717 2.574 0 6.259-.468 8.716-1.17v-6.201l-.293-.117c-2.515.585-6.668 1.111-8.833 1.111-2.399 0-3.452-.878-3.452-2.164 0-1.171.585-1.989 6.143-4.446 6.435-2.867 7.956-5.324 7.956-9.068 0-5.617-3.978-8.717-11.29-8.717-3.043 0-7.547.468-9.712.994"/></g><path fill="#4a5568" d="M182.20169 151.7635h1.4732l-3.4671-8.9916h-1.4224l-3.4925 8.9916h1.4097l.6985-1.8542h4.1148zm-4.3307-3.0988 1.5748-4.191h.0635l1.5494 4.191zm11.2268-6.223v3.0353c-.3683-.1524-.9017-.2413-1.524-.2413-2.0066 0-3.3909 1.27-3.3909 3.429 0 1.9304 1.1938 3.2258 2.9718 3.2258 1.2192 0 2.0193-.5842 2.2352-1.1176l.4064.9906h.635v-9.3218zm-1.7907 8.1788c-1.0287 0-1.778-.7493-1.778-1.9812 0-1.3462.9017-2.1717 2.2225-2.1717.5334 0 1.0287.1016 1.3462.2159v2.4003c0 .9525-.762 1.5367-1.7907 1.5367zm12.2682-5.3848c-1.1303 0-1.7653.5207-2.0701 1.0922-.381-.6858-1.0922-1.0922-2.0701-1.0922-1.2065 0-1.778.508-2.0574 1.0922l-.3937-.9652h-.6477v6.4008h1.3335v-3.6322c0-1.0541.5588-1.6129 1.5621-1.6129.8255 0 1.2573.5461 1.2573 1.5113v3.7338h1.3335v-3.7211c0-.9906.5715-1.524 1.4859-1.524.9398 0 1.3462.5715 1.3462 1.6002v3.6449h1.3335v-4.1275c0-1.4732-.8763-2.4003-2.413-2.4003zm4.94029-.9525c.4953 0 .8128-.3302.8128-.7747 0-.4572-.3175-.7874-.8128-.7874-.4826 0-.8128.3302-.8128.7874 0 .4445.3175.7747.8128.7747zm-.6604 7.4803h1.3335v-6.4008h-1.3335zm6.38812-6.5278c-1.3081 0-1.8669.5461-2.0955 1.0668l-.3937-.9398h-.6477v6.4008h1.3335v-3.6449c0-1.0033.5334-1.6002 1.5748-1.6002.889 0 1.3589.4826 1.3589 1.5875v3.6576h1.3335v-4.1148c0-1.5367-.9398-2.413-2.4638-2.413zm13.52549 6.5278h1.4732l-3.4671-8.9916h-1.4224l-3.4925 8.9916h1.4097l.6985-1.8542h4.1148zm-4.3307-3.0988 1.5748-4.191h.0635l1.5494 4.191zm10.10921-3.429c-1.143 0-1.9812.4953-2.2479 1.1049l-.4064-.9779h-.6477v9.3218h1.3335v-3.048c.3683.1397.889.254 1.4859.254 2.0955 0 3.4417-1.2954 3.4417-3.429 0-1.8161-1.0795-3.2258-2.9591-3.2258zm-.5969 5.4102c-.5969 0-1.0668-.1016-1.3716-.2032v-2.3876c0-.8636.6477-1.5621 1.7907-1.5621 1.143 0 1.778.889 1.778 2.0066 0 1.3843-.9398 2.1463-2.1971 2.1463zm8.31849-5.4102c-1.143 0-1.9812.4953-2.2479 1.1049l-.4064-.9779h-.6477v9.3218h1.3335v-3.048c.3683.1397.889.254 1.4859.254 2.0955 0 3.4417-1.2954 3.4417-3.429 0-1.8161-1.0795-3.2258-2.9591-3.2258zm-.5969 5.4102c-.5969 0-1.0668-.1016-1.3716-.2032v-2.3876c0-.8636.6477-1.5621 1.7907-1.5621 1.143 0 1.778.889 1.778 2.0066 0 1.3843-.9398 2.1463-2.1971 2.1463z" aria-label="Admin App" font-family="Frederik" font-size="12.7" font-weight="500" style="line-height:1.25;-inkscape-font-specification:&quot;Frederik Medium&quot;" transform="translate(-1.193107 -142.4417)"/></svg>