<?xml version="1.0" encoding="UTF-8" standalone="no"?>
<!-- Created with Inkscape (http://www.inkscape.org/) -->

<svg
   version="1.1"
   id="svg2"
   width="647.26562"
   height="76.131996"
   viewBox="0 0 647.26563 76.131994"
   sodipodi:docname="startingblocks_logo.ai"
   xmlns:inkscape="http://www.inkscape.org/namespaces/inkscape"
   xmlns:sodipodi="http://sodipodi.sourceforge.net/DTD/sodipodi-0.dtd"
   xmlns="http://www.w3.org/2000/svg"
   xmlns:svg="http://www.w3.org/2000/svg">
  <defs
     id="defs6">
    <clipPath
       clipPathUnits="userSpaceOnUse"
       id="clipPath30">
      <path
         d="M 0,101.347 H 535.686 V 0 H 0 Z"
         id="path28" />
    </clipPath>
  </defs>
  <sodipodi:namedview
     id="namedview4"
     pagecolor="#ffffff"
     bordercolor="#666666"
     borderopacity="1.0"
     inkscape:showpageshadow="2"
     inkscape:pageopacity="0.0"
     inkscape:pagecheckerboard="0"
     inkscape:deskcolor="#d1d1d1"
     showgrid="false" />
  <g
     id="g10"
     inkscape:groupmode="layer"
     inkscape:label="Page 1"
     transform="matrix(1.3333333,0,0,-1.3333333,-35.429333,97.488796)">
    <g
       id="g12"
       transform="translate(83.485,64.1096)">
      <path
         d="M 0,0 H -19.266 V -18.661 L -2.984,-35.19 h 37.647 z"
         style="fill:#007978;fill-opacity:1;fill-rule:nonzero;stroke:none"
         id="path14" />
    </g>
    <g
       id="g16"
       transform="translate(45.838,64.1096)">
      <path
         d="m 0,0 h -19.266 v -35.19 h 37.647 v 16.529 z"
         style="fill:#11b9a3;fill-opacity:1;fill-rule:nonzero;stroke:none"
         id="path18" />
    </g>
    <g
       id="g20"
       transform="translate(64.2192,28.9196)">
      <path
         d="M 0,0 H 16.282 L 0,16.529 Z"
         style="fill:#004263;fill-opacity:1;fill-rule:nonzero;stroke:none"
         id="path22" />
    </g>
    <g
       id="g24">
      <g
         id="g26"
         clip-path="url(#clipPath30)">
        <g
           id="g32"
           transform="translate(139.2443,30.6438)">
          <path
             d="m 0,0 v 3.92 l 0.292,0.117 c 2.34,-0.702 5.792,-1.112 8.951,-1.112 4.212,0 6.436,1.404 6.436,3.92 0,2.398 -0.937,3.218 -7.372,6.084 -6.552,2.925 -8.132,5.148 -8.132,8.483 0,4.973 3.744,7.956 10.004,7.956 2.515,0 5.967,-0.526 8.249,-1.228 v -3.978 l -0.292,-0.118 c -2.341,0.703 -6.144,1.229 -8.425,1.229 -3.568,0 -5.323,-1.404 -5.323,-3.744 0,-1.814 0.935,-3.042 6.903,-5.675 6.903,-2.983 8.6,-5.089 8.6,-8.775 C 19.891,1.755 16.029,-1.17 9.126,-1.17 6.201,-1.17 2.223,-0.644 0,0"
             style="fill:#007978;fill-opacity:1;fill-rule:nonzero;stroke:none"
             id="path34" />
        </g>
        <g
           id="g36"
           transform="translate(180.3703,33.7444)">
          <path
             d="m 0,0 v -3.92 c -0.937,-0.175 -2.165,-0.351 -4.388,-0.351 -6.435,0 -10.471,3.16 -10.471,10.296 v 25.976 h 4.094 v -6.845 c 1.287,0.234 3.453,0.527 5.734,0.527 h 4.329 V 21.587 H -10.765 V 6.436 c 0,-4.564 2.399,-6.612 6.611,-6.612 1.697,0 2.808,0.117 3.861,0.293 z"
             style="fill:#007978;fill-opacity:1;fill-rule:nonzero;stroke:none"
             id="path38" />
        </g>
        <g
           id="g40"
           transform="translate(205.0578,41.6418)">
          <path
             d="m 0,0 v 2.106 h -9.419 c -4.622,0 -7.079,-1.813 -7.079,-5.148 0,-3.334 2.808,-5.206 6.962,-5.206 C -3.102,-8.248 0,-4.562 0,0 M 4.036,7.372 V -11.583 H 1.871 l -1.286,4.622 c -1.112,-2.75 -4.213,-5.207 -10.414,-5.207 -6.143,0 -10.881,2.925 -10.881,9.126 0,5.792 4.153,9.068 11.466,9.068 H 0 v 0.819 c 0,4.68 -2.75,7.43 -8.308,7.43 -3.744,0 -8.131,-0.819 -9.712,-1.287 l -0.292,0.117 v 3.919 c 1.521,0.469 6.143,1.346 10.414,1.346 7.546,0 11.934,-4.037 11.934,-10.998"
             style="fill:#007978;fill-opacity:1;fill-rule:nonzero;stroke:none"
             id="path42" />
        </g>
        <g
           id="g44"
           transform="translate(233.5471,59.6609)">
          <path
             d="m 0,0 v -3.861 l -0.175,-0.117 c -0.761,0.117 -1.638,0.234 -3.159,0.234 -4.446,0 -8.073,-2.808 -8.073,-8.542 v -17.316 h -4.155 v 29.368 h 1.756 l 1.638,-4.563 c 1.111,2.808 4.68,5.148 9.067,5.148 C -1.755,0.351 -0.585,0.176 0,0"
             style="fill:#007978;fill-opacity:1;fill-rule:nonzero;stroke:none"
             id="path46" />
        </g>
        <g
           id="g48"
           transform="translate(253.8478,33.7444)">
          <path
             d="m 0,0 v -3.92 c -0.937,-0.175 -2.165,-0.351 -4.388,-0.351 -6.435,0 -10.471,3.16 -10.471,10.296 v 25.976 h 4.094 v -6.845 c 1.287,0.234 3.452,0.527 5.734,0.527 h 4.329 V 21.587 H -10.765 V 6.436 c 0,-4.564 2.399,-6.612 6.611,-6.612 1.697,0 2.808,0.117 3.861,0.293 z"
             style="fill:#007978;fill-opacity:1;fill-rule:nonzero;stroke:none"
             id="path50" />
        </g>
        <path
           d="m 260.399,59.427 h 4.153 V 30.059 h -4.153 z m -0.82,8.541 c 0,1.638 1.229,2.809 2.866,2.809 1.639,0 2.809,-1.171 2.809,-2.809 0,-1.579 -1.111,-2.749 -2.809,-2.749 -1.813,0 -2.866,1.228 -2.866,2.749"
           style="fill:#007978;fill-opacity:1;fill-rule:nonzero;stroke:none"
           id="path52" />
        <g
           id="g54"
           transform="translate(298.3654,49.0134)">
          <path
             d="m 0,0 v -18.955 h -4.095 v 17.434 c 0,5.792 -2.808,8.424 -7.547,8.424 -5.382,0 -8.658,-3.276 -8.658,-8.424 v -17.434 h -4.154 v 29.369 h 2.165 l 1.287,-4.564 c 1.053,2.399 3.861,5.149 9.828,5.149 C -4.329,10.999 0,6.962 0,0"
             style="fill:#007978;fill-opacity:1;fill-rule:nonzero;stroke:none"
             id="path56" />
        </g>
        <g
           id="g58"
           transform="translate(328.4348,41.8176)">
          <path
             d="m 0,0 v 12.52 c -2.165,0.994 -5.207,1.579 -7.723,1.579 -6.551,0 -11.407,-4.27 -11.407,-11.525 0,-6.025 3.393,-10.823 9.711,-10.823 C -3.744,-8.249 0,-4.855 0,0 m 4.095,15.445 v -27.321 c 0,-9.77 -5.733,-13.924 -14.86,-13.924 -3.1,0 -5.733,0.469 -7.136,0.82 v 3.919 l 0.292,0.118 c 1.287,-0.352 3.92,-0.761 6.962,-0.761 6.259,0 10.647,2.808 10.647,9.828 v 4.096 c -1.346,-2.633 -5.323,-4.564 -9.945,-4.564 -8.659,0 -13.398,6.904 -13.398,14.743 0,10.296 6.67,15.795 15.446,15.795 5.849,0 10.471,-1.813 11.992,-2.749"
             style="fill:#007978;fill-opacity:1;fill-rule:nonzero;stroke:none"
             id="path60" />
        </g>
        <g
           id="g62"
           transform="translate(370.5656,45.1526)">
          <path
             d="m 0,0 c 0,4.563 -2.633,8.424 -7.547,8.424 -4.563,0 -7.488,-2.691 -7.488,-6.669 V -8.308 c 1.755,-0.585 3.861,-0.877 5.616,-0.877 C -4.271,-9.185 0,-6.026 0,0 m 7.371,0.351 c 0,-10.472 -7.02,-16.03 -16.557,-16.03 -6.259,0 -11.348,1.872 -13.045,2.75 v 40.893 h 7.196 v -16.79 c 1.404,2.34 4.972,3.919 9.302,3.919 8.307,0 13.104,-6.844 13.104,-14.742"
             style="fill:#007978;fill-opacity:1;fill-rule:nonzero;stroke:none"
             id="path64" />
        </g>
        <path
           d="m 383.669,73.116 h 7.196 V 30.058 h -7.196 z"
           style="fill:#007978;fill-opacity:1;fill-rule:nonzero;stroke:none"
           id="path66" />
        <g
           id="g68"
           transform="translate(420.7599,44.8015)">
          <path
             d="m 0,0 c 0,5.324 -3.394,8.833 -8.366,8.833 -5.031,0 -8.483,-3.685 -8.483,-8.774 0,-5.266 3.393,-8.776 8.424,-8.776 C -3.276,-8.717 0,-5.032 0,0 m -24.161,0.059 c 0,9.009 6.493,15.385 15.795,15.385 9.712,0 15.678,-6.786 15.678,-15.269 0,-8.834 -6.083,-15.503 -15.737,-15.503 -9.476,0 -15.736,6.611 -15.736,15.387"
             style="fill:#007978;fill-opacity:1;fill-rule:nonzero;stroke:none"
             id="path70" />
        </g>
        <g
           id="g72"
           transform="translate(431.8166,44.8015)">
          <path
             d="m 0,0 c 0,9.126 6.376,15.444 15.795,15.444 2.809,0 5.383,-0.409 7.021,-0.994 V 7.839 L 22.523,7.722 c -1.287,0.527 -3.217,0.819 -5.791,0.819 -5.616,0 -9.361,-3.101 -9.361,-8.366 0,-5.382 3.92,-8.658 9.536,-8.658 2.515,0 4.622,0.409 6.435,0.936 l 0.293,-0.117 v -6.669 c -2.048,-0.644 -4.68,-0.995 -7.429,-0.995 C 6.376,-15.328 0,-9.126 0,0"
             style="fill:#007978;fill-opacity:1;fill-rule:nonzero;stroke:none"
             id="path74" />
        </g>
        <g
           id="g76"
           transform="translate(460.8903,73.1165)">
          <path
             d="m 0,0 h 7.196 v -24.629 h 4.621 l 7.431,11.173 H 27.73 L 17.609,-27.789 28.374,-43.058 h -8.541 l -8.016,12.052 H 7.196 V -43.058 H 0 Z"
             style="fill:#007978;fill-opacity:1;fill-rule:nonzero;stroke:none"
             id="path78" />
        </g>
        <g
           id="g80"
           transform="translate(491.0192,30.468)">
          <path
             d="m 0,0 v 6.26 l 0.293,0.117 c 2.34,-0.585 6.376,-0.994 9.36,-0.994 2.808,0 4.329,0.877 4.329,2.398 0,1.521 -0.41,1.99 -6.494,4.68 -6.142,2.75 -7.722,5.09 -7.722,8.6 0,5.5 4.037,8.717 10.999,8.717 2.574,0 6.259,-0.468 8.716,-1.17 V 22.407 L 19.188,22.29 c -2.515,0.585 -6.668,1.111 -8.833,1.111 -2.399,0 -3.452,-0.878 -3.452,-2.164 0,-1.171 0.585,-1.989 6.143,-4.446 6.435,-2.867 7.956,-5.324 7.956,-9.068 0,-5.617 -3.978,-8.717 -11.29,-8.717 C 6.669,-0.994 2.165,-0.526 0,0"
             style="fill:#007978;fill-opacity:1;fill-rule:nonzero;stroke:none"
             id="path82" />
        </g>
      </g>
    </g>
  </g>
</svg>
